<svg width="695" height="668" viewBox="0 0 695 668" fill="none" xmlns="http://www.w3.org/2000/svg">
<path fill-rule="evenodd" clip-rule="evenodd" d="M694.944 347.472L521.208 173.736L347.472 0L0 347.472L139.67 487.142L145.515 480.779L145.524 480.787C167.092 457.369 240.464 380.162 279.416 370C319.325 359.589 346.506 356.024 359.171 354.363C359.645 354.301 360.1 354.241 360.534 354.184C360.787 354.15 361.034 354.118 361.273 354.086C361.494 354.057 361.708 354.028 361.916 354C344.416 359.5 303.416 373.6 279.416 386C254.303 398.975 183.643 471.862 161.288 495.265L161.323 495.298L154.861 502.333L273.528 621C237.568 550.558 257.5 503.411 272.84 467.127C273.07 466.583 273.3 466.04 273.528 465.5C285.354 437.5 323.852 410.942 358.287 388.156L358.288 388.155C365.009 383.708 371.629 379.327 377.916 375C408.716 353.8 427.416 300.167 432.916 276L377.916 329H251.916L172.916 370L130.416 329V276H149.916L247.416 198.5V179L321.416 119H363.916C352.416 97.8333 331.416 55.1 339.416 53.5C347.416 51.9 435.249 104.667 478.416 131L592.916 245.5C592.916 245.5 647.916 366.167 650.416 392L694.944 347.472Z" fill="black"/>
<path d="M379.814 535.798C378.352 537.26 376.575 537.489 374.482 536.486L340.087 520.062C338.855 519.461 338.138 518.629 337.937 517.569C337.765 516.48 338.21 515.405 339.27 514.344C340.044 513.57 340.832 513.155 341.635 513.097C342.409 513.011 343.312 513.226 344.344 513.742L371.688 527.328L358.489 499.683C357.514 497.62 357.672 495.943 358.962 494.653C359.649 493.965 360.38 493.607 361.154 493.578C361.928 493.549 362.86 493.793 363.949 494.309L391.723 507.895L378.051 480.035C377.564 479.032 377.349 478.129 377.406 477.326C377.463 476.524 377.865 475.75 378.61 475.005C379.527 474.087 380.516 473.729 381.577 473.93C382.637 474.13 383.468 474.847 384.07 476.079L400.451 510.604C400.938 511.664 401.139 512.61 401.053 513.441C400.967 514.273 400.537 515.075 399.763 515.849C398.989 516.623 398.187 517.053 397.355 517.139C396.524 517.225 395.564 517.01 394.475 516.494L367.56 503.596L380.459 530.596C380.946 531.657 381.147 532.602 381.061 533.434C381.003 534.236 380.588 535.024 379.814 535.798ZM414.756 500.857C413.752 501.86 412.692 502.232 411.574 501.974C410.456 501.716 409.639 500.871 409.123 499.438L395.322 462.936C394.864 461.732 394.72 460.7 394.892 459.84C395.064 458.923 395.494 458.12 396.182 457.432C396.841 456.773 397.615 456.372 398.504 456.229C399.392 456.028 400.439 456.157 401.642 456.616L438.187 470.374C439.649 470.918 440.523 471.735 440.81 472.824C441.068 473.885 440.71 474.902 439.735 475.877C438.933 476.679 438.116 477.124 437.285 477.21C436.453 477.238 435.464 477.023 434.318 476.565L427.181 473.727L412.391 488.517L415.272 495.611C415.73 496.815 415.945 497.804 415.916 498.578C415.888 499.352 415.501 500.111 414.756 500.857ZM402.416 463.839L409.897 482.24L420.904 471.234L402.502 463.753L402.416 463.839ZM453.61 462.002C451.775 463.837 449.898 463.794 447.978 461.873L436.584 450.48L414.442 446.739C413.554 446.596 412.837 446.223 412.292 445.621C411.748 444.962 411.49 444.217 411.519 443.386C411.519 442.526 411.906 441.709 412.679 440.935C413.797 439.817 415.359 439.43 417.366 439.774L434.52 442.741L431.597 425.543C431.425 424.454 431.425 423.565 431.597 422.878C431.74 422.161 432.127 421.487 432.758 420.857C433.876 419.739 435.022 419.424 436.197 419.911C437.372 420.341 438.089 421.344 438.347 422.921L442.13 445.02L453.481 456.37C455.401 458.29 455.444 460.168 453.61 462.002ZM491.946 423.667C490.111 425.501 488.248 425.472 486.356 423.581L463.139 400.364L454.756 408.748C453.179 410.324 451.617 410.338 450.069 408.791C448.55 407.271 448.579 405.724 450.155 404.147L472.426 381.876C474.003 380.3 475.55 380.271 477.07 381.79C478.617 383.338 478.603 384.9 477.027 386.477L468.643 394.86L491.86 418.077C493.751 419.969 493.78 421.832 491.946 423.667ZM520.413 395.371C517.489 398.295 514.279 400.215 510.782 401.132C507.314 402.021 503.817 401.906 500.292 400.788C496.738 399.642 493.384 397.492 490.231 394.339C487.05 391.158 484.9 387.804 483.782 384.279C482.664 380.753 482.564 377.27 483.481 373.831C484.37 370.363 486.29 367.153 489.242 364.2C492.195 361.248 495.405 359.328 498.873 358.439C502.312 357.522 505.795 357.622 509.321 358.74C512.846 359.858 516.185 361.993 519.338 365.146C522.52 368.328 524.684 371.696 525.83 375.25C526.948 378.775 527.063 382.272 526.174 385.74C525.286 389.209 523.365 392.419 520.413 395.371ZM515.684 390.642C518.464 387.861 519.668 384.737 519.295 381.269C518.923 377.801 517.031 374.361 513.62 370.95C510.18 367.511 506.741 365.619 503.301 365.275C499.89 364.902 496.781 366.121 493.972 368.93C491.191 371.71 489.973 374.82 490.317 378.259C490.661 381.699 492.553 385.138 495.992 388.578C499.403 391.989 502.843 393.881 506.311 394.253C509.779 394.626 512.903 393.422 515.684 390.642Z" fill="black"/>
<path d="M427.614 614.674C422.575 619.713 417.229 622.987 411.577 624.494C405.925 626.001 400.226 625.813 394.48 623.929C388.734 621.95 383.247 618.347 378.019 613.119C372.791 607.891 369.211 602.428 367.28 596.729C365.396 590.983 365.208 585.284 366.715 579.632C368.222 573.98 371.496 568.634 376.535 563.595C379.314 560.816 382.352 558.532 385.649 556.742C388.993 554.905 392.313 553.751 395.61 553.28C397.306 552.903 398.695 553.115 399.779 553.916C400.862 554.622 401.545 555.588 401.828 556.812C402.11 557.943 401.945 559.05 401.333 560.133C400.721 561.216 399.543 561.923 397.801 562.252C395.022 562.676 392.408 563.548 389.959 564.866C387.556 566.138 385.319 567.81 383.247 569.882C377.878 575.252 375.428 580.998 375.899 587.121C376.37 593.244 379.644 599.343 385.72 605.419C391.795 611.494 397.918 614.791 404.088 615.309C410.211 615.78 415.957 613.331 421.327 607.962C423.399 605.89 425.094 603.629 426.413 601.18C427.779 598.683 428.698 595.975 429.169 593.055C429.545 591.36 430.252 590.229 431.288 589.664C432.277 589.052 433.337 588.887 434.467 589.169C435.598 589.452 436.54 590.111 437.293 591.148C438 592.137 438.235 593.361 438 594.821C437.576 598.354 436.445 601.839 434.608 605.277C432.819 608.669 430.487 611.801 427.614 614.674ZM456.565 585.441C454.116 587.89 451.643 587.866 449.147 585.37L405.839 542.062C403.343 539.566 403.319 537.093 405.768 534.644C408.218 532.195 410.69 532.219 413.186 534.715L431.414 552.942L459.32 525.036L441.093 506.809C438.596 504.312 438.573 501.84 441.022 499.39C443.424 496.988 445.873 497.036 448.37 499.532L491.677 542.839C494.173 545.336 494.22 547.785 491.818 550.187C489.369 552.636 486.897 552.612 484.4 550.116L465.466 531.182L437.56 559.089L456.494 578.022C458.99 580.519 459.014 582.991 456.565 585.441ZM510.512 530.504C507.875 533.142 505.237 533.142 502.6 530.504L460.705 488.609C458.067 485.972 458.067 483.334 460.705 480.697L486.492 454.91C488.517 452.885 490.495 452.838 492.426 454.769C494.451 456.794 494.451 458.819 492.426 460.844L469.748 483.523L485.361 499.136L506.485 478.012C508.51 475.987 510.512 475.963 512.49 477.941C514.469 479.92 514.445 481.921 512.42 483.947L491.296 505.071L507.686 521.461L530.364 498.783C532.39 496.758 534.391 496.734 536.37 498.712C538.348 500.69 538.324 502.692 536.299 504.717L510.512 530.504ZM564.707 477.581C561.457 480.831 557.948 483.586 554.18 485.847C550.459 488.061 546.739 489.521 543.018 490.227C541.511 490.51 540.239 490.321 539.203 489.662C538.119 488.955 537.389 488.084 537.013 487.048C536.636 485.918 536.659 484.858 537.083 483.869C537.554 482.833 538.567 482.15 540.121 481.82C543.606 481.066 546.856 479.842 549.871 478.146C552.838 476.404 555.711 474.143 558.49 471.364C562.493 467.361 564.73 463.71 565.201 460.413C565.672 457.022 564.754 454.173 562.446 451.865C560.562 449.981 558.396 449.18 555.946 449.463C553.45 449.698 550.271 451.088 546.409 453.631L537.295 459.636C531.879 463.169 526.981 464.958 522.6 465.006C518.267 465.006 514.264 463.169 510.59 459.495C507.623 456.528 505.786 453.137 505.079 449.322C504.42 445.459 504.891 441.503 506.492 437.453C508.047 433.355 510.661 429.469 514.334 425.796C517.255 422.875 520.363 420.52 523.66 418.731C527.004 416.894 530.466 415.74 534.045 415.269C535.411 415.033 536.565 415.245 537.507 415.905C538.449 416.564 539.085 417.435 539.415 418.519C539.697 419.555 539.58 420.568 539.061 421.557C538.543 422.546 537.484 423.229 535.882 423.605C532.821 424.218 530.065 425.23 527.616 426.643C525.12 428.009 522.742 429.823 520.481 432.083C516.995 435.569 514.994 439.125 514.476 442.751C514.005 446.331 515.064 449.416 517.655 452.006C519.633 453.984 521.847 454.926 524.296 454.832C526.745 454.738 529.759 453.513 533.339 451.158L542.382 445.224C548.081 441.503 553.121 439.525 557.501 439.289C561.834 439.007 565.743 440.608 569.228 444.094C572.149 447.014 573.915 450.334 574.527 454.055C575.139 457.776 574.645 461.662 573.043 465.712C571.395 469.715 568.616 473.672 564.707 477.581ZM608.655 433.633C605.405 436.882 601.897 439.638 598.129 441.899C594.408 444.112 590.687 445.572 586.966 446.279C585.459 446.561 584.187 446.373 583.151 445.714C582.068 445.007 581.338 444.136 580.961 443.1C580.584 441.969 580.608 440.909 581.032 439.92C581.503 438.884 582.515 438.201 584.07 437.872C587.555 437.118 590.805 435.893 593.819 434.198C596.786 432.455 599.659 430.194 602.438 427.416C606.442 423.412 608.679 419.762 609.15 416.465C609.621 413.074 608.702 410.224 606.395 407.917C604.511 406.033 602.344 405.232 599.895 405.514C597.399 405.75 594.219 407.139 590.357 409.683L581.244 415.688C575.827 419.22 570.929 421.01 566.549 421.057C562.216 421.057 558.212 419.22 554.538 415.547C551.571 412.579 549.734 409.188 549.028 405.373C548.368 401.511 548.839 397.555 550.441 393.504C551.995 389.407 554.609 385.521 558.283 381.847C561.203 378.927 564.311 376.572 567.608 374.782C570.952 372.945 574.414 371.792 577.994 371.321C579.36 371.085 580.514 371.297 581.456 371.956C582.398 372.616 583.033 373.487 583.363 374.57C583.646 375.607 583.528 376.619 583.01 377.608C582.492 378.597 581.432 379.28 579.831 379.657C576.769 380.269 574.014 381.282 571.565 382.695C569.069 384.061 566.69 385.874 564.429 388.135C560.944 391.62 558.942 395.176 558.424 398.803C557.953 402.382 559.013 405.467 561.603 408.058C563.581 410.036 565.795 410.978 568.244 410.884C570.693 410.79 573.708 409.565 577.287 407.21L586.33 401.276C592.029 397.555 597.069 395.577 601.449 395.341C605.782 395.058 609.691 396.66 613.177 400.145C616.097 403.065 617.863 406.386 618.475 410.107C619.088 413.827 618.593 417.713 616.992 421.764C615.343 425.767 612.565 429.723 608.655 433.633Z" fill="black"/>
</svg>
